<?xml version="1.0" standalone="no"?>
<!DOCTYPE svg PUBLIC "-//W3C//DTD SVG 20010904//EN"
 "http://www.w3.org/TR/2001/REC-SVG-20010904/DTD/svg10.dtd">
<svg version="1.0" xmlns="http://www.w3.org/2000/svg"
 width="222.000000pt" height="222.000000pt" viewBox="0 0 222.000000 222.000000"
 preserveAspectRatio="xMidYMid meet">
<metadata>
Created by potrace 1.11, written by Peter Selinger 2001-2013
</metadata>
<g transform="translate(0.000000,222.000000) scale(0.100000,-0.100000)"
fill="#000000" stroke="none">
<path d="M977 1989 c-103 -13 -249 -66 -343 -123 -208 -127 -352 -313 -420
-543 -31 -107 -43 -292 -25 -399 62 -369 324 -658 685 -757 69 -19 106 -22
241 -21 144 0 169 3 248 27 301 92 528 308 626 595 79 231 62 480 -47 707
-176 363 -557 566 -965 514z m-202 -353 c19 -8 44 -30 55 -48 19 -32 20 -49
20 -466 0 -464 -1 -459 49 -432 21 11 21 16 21 381 l0 371 34 34 c40 40 77 44
136 14 69 -35 70 -43 70 -369 0 -184 4 -292 10 -296 6 -3 19 -3 30 0 19 6 20
15 20 218 0 118 5 229 11 250 12 43 57 77 103 77 38 0 101 -37 115 -67 6 -14
11 -85 11 -171 0 -81 4 -154 10 -162 7 -11 15 -12 37 -4 28 9 28 11 33 106 4
84 8 100 29 122 48 51 126 43 177 -17 23 -27 25 -36 22 -111 l-3 -81 -32 -3
c-36 -4 -41 5 -45 92 -3 52 -22 74 -52 63 -13 -5 -16 -22 -16 -95 0 -104 -13
-129 -82 -157 -52 -21 -97 -13 -129 21 -23 25 -24 32 -27 190 -3 152 -5 165
-24 178 -45 32 -48 19 -48 -215 0 -259 -5 -279 -74 -309 -55 -25 -94 -18 -133
22 l-28 29 -3 305 -3 304 -24 6 c-13 3 -29 3 -34 -1 -8 -4 -11 -127 -11 -377
l0 -370 -33 -33 c-59 -59 -134 -56 -181 8 -20 28 -21 42 -26 469 l-5 441 -22
8 c-15 5 -25 4 -30 -4 -4 -7 -10 -248 -13 -537 l-5 -525 -32 -3 c-27 -3 -33 1
-38 20 -3 13 -4 261 -3 551 l3 529 33 29 c36 33 73 37 127 15z"/>
</g>
</svg>
